<?xml version="1.0" encoding="UTF-8"?><svg version="1.1" viewBox="0 0 144 144" xmlns="http://www.w3.org/2000/svg"><g><path d="m134.4 134.4h-124.8c-2.7969 0-5.3711-1.4922-6.7656-3.9141-1.3867-2.4219-1.3789-5.4023 0.027343-7.8164l62.402-109.2c1.3945-2.3945 3.9609-3.8672 6.7344-3.8672s5.3398 1.4727 6.7383 3.8672l62.402 109.2c1.4062 2.4141 1.4141 5.3945 0.027344 7.8164-1.3906 2.4219-3.9766 3.9141-6.7695 3.9141z" fill="#ffc106"/><path d="m64.199 111.55c0-1.0508 0.18359-2.0078 0.55859-2.9102 0.36719-0.89062 0.89453-1.6602 1.5703-2.3086 0.66797-0.65625 1.4922-1.168 2.4336-1.5312 0.95312-0.35938 2.0195-0.55078 3.2148-0.55078 1.1953 0 2.2695 0.19141 3.2305 0.55078 0.97266 0.36328 1.7969 0.875 2.4648 1.5312 0.67969 0.64844 1.207 1.418 1.5703 2.3086 0.375 0.90234 0.55859 1.8594 0.55859 2.9102 0 1.0508-0.18359 2.0117-0.55859 2.8867-0.36719 0.875-0.89453 1.6328-1.5703 2.293-0.66797 0.64453-1.4922 1.1523-2.4648 1.5273-0.96094 0.35938-2.0352 0.53906-3.2305 0.53906-1.1953 0-2.2617-0.17969-3.2148-0.54297-0.94141-0.375-1.7656-0.88281-2.4336-1.5273-0.67969-0.66016-1.207-1.418-1.5703-2.293-0.375-0.875-0.55859-1.8359-0.55859-2.8828m13.574-16.156h-11.598l-1.6406-46.797h14.875z" fill="#363636"/></g></svg>