<?xml version="1.0" encoding="UTF-8"?><svg enable-background="new 0 0 110 110" version="1.0" viewBox="0 0 110 110" xml:space="preserve" xmlns="http://www.w3.org/2000/svg"><circle cx="55" cy="55" r="55" fill="#FABC3D"/><polygon points="87 43 83 43 75 47 75 63 83 67 87 67" fill="#F0F1F1"/><path d="m79 31c0 2.209-1.791 4-4 4h-12v-8h12c2.209 0 4 1.791 4 4z" fill="#3E3E3F"/><rect x="36" y="71" width="22" height="4" fill="#F0F1F1"/><polygon points="61 87 55 75 39 75 33 87 39 87 44 77 44 87 50 87 50 77 55 87" fill="#3E3E3F"/><path d="M31.422,35.211C31.145,35.072,30.838,35,30.528,35H25c-1.104,0-2,0.896-2,2v32c0,1.104,0.896,2,2,2    h40c1.104,0,2-0.896,2-2v-6h8V47h-8v-6c0-1.104-0.896-2-2-2H42.07l4-6H63v-4H43.93l-6.232,9.349" fill="#3E3E3F"/><circle cx="59" cy="46" r="2" fill="#F79392"/><path d="m75 27h-12v4h16c0-2.209-1.791-4-4-4z" fill="#5B5C5F"/><polygon points="75 47 75 55 87 55 87 43 83 43" fill="#fff"/><rect x="43" y="62" width="18" height="3" fill="#818284"/></svg>