<?xml version="1.0" ?><!DOCTYPE svg  PUBLIC '-//W3C//DTD SVG 1.0//EN'  'http://www.w3.org/TR/2001/REC-SVG-20010904/DTD/svg10.dtd'><svg height="110px" style="enable-background:new 0 0 110 110;" version="1.0" viewBox="0 0 110 110" width="110px" xml:space="preserve" xmlns="http://www.w3.org/2000/svg" xmlns:xlink="http://www.w3.org/1999/xlink"><g id="Artboard"/><g id="Multicolor"><circle cx="55" cy="55" r="55" style="fill:#FABC3D;"/><g><polygon points="87,43 83,43 75,47 75,63 83,67 87,67   " style="fill:#F0F1F1;"/><path d="M79,31c0,2.209-1.791,4-4,4H63v-8h12C77.209,27,79,28.791,79,31z" style="fill:#3E3E3F;"/><rect height="4" style="fill:#F0F1F1;" width="22" x="36" y="71"/><polygon points="61,87 55,75 39,75 33,87 39,87 44,77 44,87 50,87 50,77 55,87   " style="fill:#3E3E3F;"/><path d="M31.422,35.211C31.145,35.072,30.838,35,30.528,35H25c-1.104,0-2,0.896-2,2v32c0,1.104,0.896,2,2,2    h40c1.104,0,2-0.896,2-2v-6h8V47h-8v-6c0-1.104-0.896-2-2-2H42.07l4-6H63v-4H43.93l-6.232,9.349" style="fill:#3E3E3F;"/><circle cx="59" cy="46" r="2" style="fill:#F79392;"/><path d="M75,27H63v4h16C79,28.791,77.209,27,75,27z" style="fill:#5B5C5F;"/><polygon points="75,47 75,55 87,55 87,43 83,43   " style="fill:#FFFFFF;"/><rect height="3" style="fill:#818284;" width="18" x="43" y="62"/></g></g></svg>