<?xml version="1.0" standalone="no"?>
<!DOCTYPE svg PUBLIC "-//W3C//DTD SVG 20010904//EN"
 "http://www.w3.org/TR/2001/REC-SVG-20010904/DTD/svg10.dtd">
<svg version="1.0" xmlns="http://www.w3.org/2000/svg"
 width="700.000000pt" height="700.000000pt" viewBox="0 0 700.000000 700.000000"
 preserveAspectRatio="xMidYMid meet">
<metadata>
Created by potrace 1.11, written by Peter Selinger 2001-2013
</metadata>
<g transform="translate(0.000000,700.000000) scale(0.100000,-0.100000)"
fill="#000000" stroke="none">
<path d="M4010 5220 l0 -60 -607 -2 -607 -3 -198 -298 -198 -297 -210 105
-210 105 -212 0 c-191 0 -216 -2 -244 -19 -68 -41 -64 22 -64 -1123 0 -1153
-5 -1076 69 -1125 l34 -23 1299 0 c1424 0 1333 -4 1377 59 20 27 21 42 21 240
l0 211 255 0 255 0 0 510 0 510 -255 0 -255 0 0 211 c0 198 -1 213 -21 240
-44 62 -8 59 -819 59 l-740 0 127 190 126 190 539 0 538 0 0 -66 0 -65 413 3
c408 3 412 3 459 26 91 45 141 126 142 232 1 105 -59 194 -159 236 -28 11
-109 14 -445 14 l-410 0 0 -60z m-204 -1036 c63 -30 90 -104 59 -164 -40 -77
-128 -95 -191 -37 -67 61 -53 160 27 200 43 21 62 21 105 1z"/>
<path d="M2290 1850 c-104 -209 -190 -382 -190 -385 0 -3 85 -5 190 -5 l190 0
159 318 160 317 0 -317 1 -318 190 0 190 0 1 318 0 317 160 -317 159 -318 190
0 c105 0 190 2 190 5 0 3 -86 176 -190 385 l-190 380 -510 0 -510 0 -190 -380z"/>
</g>
</svg>
