<?xml version="1.0" encoding="UTF-8"?><!DOCTYPE svg  PUBLIC '-//W3C//DTD SVG 20010904//EN'  'http://www.w3.org/TR/2001/REC-SVG-20010904/DTD/svg10.dtd'><svg width="700pt" height="700pt" version="1.0" viewBox="0 0 700.000000 700.000000" xmlns="http://www.w3.org/2000/svg"><metadata>Created by potrace 1.11, written by Peter Selinger 2001-2013</metadata><g transform="translate(0 700) scale(.1 -.1)"><path d="m4010 5220v-60l-607-2-607-3-198-298-198-297-210 105-210 105h-212c-191 0-216-2-244-19-68-41-64 22-64-1123 0-1153-5-1076 69-1125l34-23h1299c1424 0 1333-4 1377 59 20 27 21 42 21 240v211h255 255v510 510h-255-255v211c0 198-1 213-21 240-44 62-8 59-819 59h-740l127 190 126 190h539 538v-66-65l413 3c408 3 412 3 459 26 91 45 141 126 142 232 1 105-59 194-159 236-28 11-109 14-445 14h-410v-60zm-204-1036c63-30 90-104 59-164-40-77-128-95-191-37-67 61-53 160 27 200 43 21 62 21 105 1z"/><path d="m2290 1850c-104-209-190-382-190-385s85-5 190-5h190l159 318 160 317v-317l1-318h190 190l1 318v317l160-317 159-318h190c105 0 190 2 190 5s-86 176-190 385l-190 380h-510-510l-190-380z"/></g></svg>